<svg width="31" height="14" viewBox="0 0 31 14" fill="none" xmlns="http://www.w3.org/2000/svg">
<path d="M13 13.5L17.6904 0L19.1904 0.309618L14.3478 14L13 13.5Z" fill="white"/>
<path d="M24.2216 12.7806C24.1517 12.711 24.0963 12.6282 24.0585 12.5371C24.0207 12.446 24.0012 12.3483 24.0012 12.2496C24.0012 12.151 24.0207 12.0533 24.0585 11.9622C24.0963 11.8711 24.1517 11.7883 24.2216 11.7186L28.9421 6.99964L24.2216 2.28064C24.0807 2.13981 24.0016 1.9488 24.0016 1.74964C24.0016 1.55047 24.0807 1.35947 24.2216 1.21863C24.3624 1.0778 24.5534 0.998687 24.7526 0.998687C24.9517 0.998687 25.1427 1.07781 25.2836 1.21864L30.5336 6.46864C30.6034 6.5383 30.6588 6.62107 30.6966 6.71219C30.7344 6.8033 30.7539 6.90099 30.7539 6.99964C30.7539 7.09829 30.7344 7.19597 30.6966 7.28709C30.6588 7.3782 30.6034 7.46097 30.5336 7.53064L25.2836 12.7806C25.2139 12.8505 25.1311 12.9059 25.04 12.9437C24.9489 12.9815 24.8512 13.001 24.7526 13.001C24.6539 13.001 24.5562 12.9815 24.4651 12.9437C24.374 12.9059 24.2912 12.8505 24.2216 12.7806Z" fill="white"/>
<path d="M6.53234 1.219C6.60219 1.28867 6.6576 1.37143 6.69541 1.46255C6.73322 1.55367 6.75268 1.65135 6.75268 1.75C6.75268 1.84865 6.73322 1.94633 6.69541 2.03745C6.6576 2.12857 6.60219 2.21133 6.53234 2.281L1.81184 7L6.53234 11.719C6.67317 11.8598 6.75229 12.0508 6.75229 12.25C6.75229 12.4492 6.67317 12.6402 6.53234 12.781C6.39151 12.9218 6.2005 13.0009 6.00134 13.0009C5.80218 13.0009 5.61117 12.9218 5.47034 12.781L0.220341 7.531C0.150496 7.46133 0.0950816 7.37857 0.0572719 7.28745C0.0194622 7.19633 0 7.09865 0 7C0 6.90135 0.0194622 6.80366 0.0572719 6.71255C0.0950816 6.62143 0.150496 6.53867 0.220341 6.469L5.47034 1.219C5.54001 1.14915 5.62277 1.09374 5.71389 1.05593C5.80501 1.01812 5.90269 0.998657 6.00134 0.998657C6.09999 0.998657 6.19767 1.01812 6.28879 1.05593C6.37991 1.09374 6.46267 1.14915 6.53234 1.219Z" fill="white"/>
</svg>
