<svg width="24" height="24" viewBox="0 0 24 24" fill="none" xmlns="http://www.w3.org/2000/svg">
<rect x="6.25" y="21.75" width="6.5" height="0.5" rx="0.25" transform="rotate(-90 6.25 21.75)" fill="#939AA2" stroke="#939AA2" stroke-width="0.5" stroke-linejoin="round"/>
<rect x="6.25" y="7.75" width="5.5" height="0.5" rx="0.25" transform="rotate(-90 6.25 7.75)" fill="#939AA2" stroke="#939AA2" stroke-width="0.5" stroke-linejoin="round"/>
<rect x="18.75" y="20.25" width="1.5" height="0.5" rx="0.25" transform="rotate(90 18.75 20.25)" fill="#939AA2" stroke="#939AA2" stroke-width="0.5" stroke-linejoin="round"/>
<rect x="18.75" y="2.25" width="10.5" height="0.5" rx="0.25" transform="rotate(90 18.75 2.25)" fill="#939AA2" stroke="#939AA2" stroke-width="0.5" stroke-linejoin="round"/>
<rect x="12.75" y="8.25" width="13.5" height="0.5" rx="0.25" transform="rotate(90 12.75 8.25)" fill="#939AA2" stroke="#939AA2" stroke-width="0.5" stroke-linejoin="round"/>
<circle cx="18.5" cy="16.5" r="2" transform="rotate(90 18.5 16.5)" stroke="#939AA2"/>
<circle cx="18.5" cy="16.5" r="1" transform="rotate(90 18.5 16.5)" fill="#939AA2" stroke="#939AA2"/>
<circle cx="6.5" cy="11.5" r="2" transform="rotate(-90 6.5 11.5)" fill="#939AA2" stroke="#939AA2"/>
<circle cx="12.5" cy="4.5" r="2" transform="rotate(90 12.5 4.5)" fill="#939AA2" stroke="#939AA2"/>
</svg>
