<svg width="17" height="16" viewBox="0 0 17 16" fill="none" xmlns="http://www.w3.org/2000/svg">
<path d="M12.325 0C10.846 0 9.4265 0.706267 8.5 1.82234C7.5735 0.706267 6.154 0 4.675 0C2.057 0 0 2.11008 0 4.79564C0 8.09155 2.89 10.7771 7.2675 14.8578L7.81767 15.3676C8.20222 15.724 8.79673 15.7229 9.17992 15.3651L9.7325 14.849C14.11 10.7771 17 8.09155 17 4.79564C17 2.11008 14.943 0 12.325 0ZM8.585 13.5586C8.53841 13.6064 8.46159 13.6064 8.415 13.5586C4.369 9.80054 1.7 7.31553 1.7 4.79564C1.7 3.05177 2.975 1.74387 4.675 1.74387C5.74771 1.74387 6.79759 2.32357 7.38959 3.19026C7.62432 3.53391 7.98496 3.80163 8.40112 3.80163H8.60275C9.0212 3.80163 9.38319 3.53091 9.61866 3.185C10.2067 2.32122 11.2545 1.74387 12.325 1.74387C14.025 1.74387 15.3 3.05177 15.3 4.79564C15.3 7.31553 12.631 9.80054 8.585 13.5586Z" fill="#939AA2"/>
</svg>
