<svg fill="none" height="30" viewBox="0 0 24 30" width="24" xmlns="http://www.w3.org/2000/svg"><g fill="#fff"><path d="m20.0451 15.6558c-.0336-3.729 3.0457-5.5193 3.1816-5.6023-1.7303-2.53363-4.4281-2.88676-5.3851-2.92913-2.2971-.2313-4.4829 1.35423-5.6447 1.35423-1.1653 0-2.96268-1.31539-4.86249-1.27831-2.50717.03355-4.80953 1.45663-6.10019 3.69011-2.59899 4.5094-.667407 11.194 1.86978 14.8506 1.23593 1.7903 2.71022 3.8014 4.6471 3.729 1.86979-.0724 2.576-1.2059 4.8325-1.2059 2.2529 0 2.8903 1.2059 4.866 1.1759 2.0075-.0424 3.2805-1.8327 4.5059-3.6231 1.4195-2.0781 2.0092-4.0891 2.0428-4.1951-.0424-.0141-3.9161-1.5025-3.9532-5.966z"/><path d="m16.3334 4.7036c1.0311-1.24476 1.725-2.97859 1.5343-4.7036-1.4813.0564997-3.2787.99051-4.3381 2.22997-.9552 1.10704-1.7939 2.87619-1.5661 4.56411 1.6491.12536 3.3423-.84219 4.3699-2.09048z"/></g></svg>