<svg fill="none" height="41" viewBox="0 0 161 41" width="161" xmlns="http://www.w3.org/2000/svg"><g fill="#fff"><path d="m124.41 28.3964 9.667-27.82328 3.091.63812-9.98 28.21566z"/><path d="m147.537 26.9138c-.144-.1436-.258-.3142-.336-.502-.078-.1877-.118-.3891-.118-.5924s.04-.4046.118-.5924.192-.3584.336-.502l9.729-9.7257-9.729-9.72583c-.29-.29024-.453-.68391-.453-1.09438s.163-.80413.453-1.09438.684-.45331 1.094-.45331c.411 0 .804.16306 1.095.45331l10.82 10.82019c.144.1436.258.3141.336.5019s.118.3891.118.5925c0 .2033-.04.4046-.118.5924s-.192.3584-.336.5019l-10.82 10.8202c-.144.144-.314.2582-.502.3361s-.389.118-.593.118c-.203 0-.404-.0401-.592-.118s-.358-.1921-.502-.3361z"/><path d="m14.213 3.08547c.144.14358.2582.31416.3361.50195.078.18779.1181.38911.1181.59243s-.0401.40464-.1181.59243c-.0779.18779-.1921.35836-.3361.50195l-9.72883 9.72577 9.72883 9.7258c.2903.2902.4534.6839.4534 1.0944 0 .4104-.1631.8041-.4534 1.0944-.2902.2902-.6839.4533-1.0943.4533-.4105 0-.8042-.1631-1.0944-.4533l-10.82018-10.8202c-.14395-.1436-.258159-.3142-.336084-.502s-.118036-.3891-.118036-.5924.040111-.4046.118036-.5924.192134-.3584.336084-.502l10.82018-10.82013c.1436-.14395.3141-.25816.5019-.33609.1878-.07792.3891-.11803.5925-.11803.2033 0 .4046.04011.5924.11803.1878.07793.3584.19214.5019.33609z"/><path d="m34.7633 26.9601c6.272 0 10.592-4.704 10.592-12.384 0-7.68002-4.32-12.19202-10.592-12.19202s-10.592 4.48-10.592 12.19202c0 7.68 4.32 12.384 10.592 12.384zm0-4.096c-3.52 0-5.76-3.264-5.76-8.288 0-5.15202 2.144-8.12802 5.76-8.12802s5.76 2.976 5.76 8.12802c0 5.024-2.24 8.288-5.76 8.288z"/><path d="m64.688 2.83208h-6.496v23.68002h6.752c6.976 0 11.456-4 11.456-11.936 0-8.03202-4.48-11.74402-11.712-11.74402zm-.288 19.87202h-1.472v-16.09602h1.472c4.448 0 7.168 2.176 7.168 7.96802 0 5.76-2.72 8.128-7.168 8.128z"/><path d="m92.6714 20.4321h7.6796l1.664 6.08h4.96l-7.6156-23.68002h-5.568l-7.584 23.68002h4.8zm5.952-6.272.704 2.592h-5.632l.704-2.592c.736-2.464 1.408-5.15202 2.016-7.74402h.128c.736 2.56 1.344 5.28002 2.08 7.74402z"/></g></svg>