<svg width="78" height="16" viewBox="0 0 78 16" fill="none" xmlns="http://www.w3.org/2000/svg">
<path d="M60 14.5L64.6904 1L66.1904 1.30962L61.3478 15L60 14.5Z" fill="white"/>
<path d="M71.2216 13.7806C71.1517 13.711 71.0963 13.6282 71.0585 13.5371C71.0207 13.446 71.0012 13.3483 71.0012 13.2496C71.0012 13.151 71.0207 13.0533 71.0585 12.9622C71.0963 12.8711 71.1517 12.7883 71.2216 12.7186L75.9421 7.99964L71.2216 3.28064C71.0807 3.13981 71.0016 2.9488 71.0016 2.74964C71.0016 2.55047 71.0807 2.35947 71.2216 2.21863C71.3624 2.0778 71.5534 1.99869 71.7526 1.99869C71.9517 1.99869 72.1427 2.07781 72.2836 2.21864L77.5336 7.46864C77.6034 7.5383 77.6588 7.62107 77.6966 7.71219C77.7344 7.8033 77.7539 7.90099 77.7539 7.99964C77.7539 8.09829 77.7344 8.19597 77.6966 8.28709C77.6588 8.3782 77.6034 8.46097 77.5336 8.53064L72.2836 13.7806C72.2139 13.8505 72.1311 13.9059 72.04 13.9437C71.9489 13.9815 71.8512 14.001 71.7526 14.001C71.6539 14.001 71.5562 13.9815 71.4651 13.9437C71.374 13.9059 71.2912 13.8505 71.2216 13.7806Z" fill="white"/>
<path d="M6.53234 2.219C6.60219 2.28867 6.6576 2.37143 6.69541 2.46255C6.73322 2.55367 6.75268 2.65135 6.75268 2.75C6.75268 2.84865 6.73322 2.94633 6.69541 3.03745C6.6576 3.12857 6.60219 3.21133 6.53234 3.281L1.81184 8L6.53234 12.719C6.67317 12.8598 6.75229 13.0508 6.75229 13.25C6.75229 13.4492 6.67317 13.6402 6.53234 13.781C6.39151 13.9218 6.2005 14.0009 6.00134 14.0009C5.80218 14.0009 5.61117 13.9218 5.47034 13.781L0.220341 8.531C0.150496 8.46133 0.0950816 8.37857 0.0572719 8.28745C0.0194622 8.19633 0 8.09865 0 8C0 7.90135 0.0194622 7.80366 0.0572719 7.71255C0.0950816 7.62143 0.150496 7.53867 0.220341 7.469L5.47034 2.219C5.54001 2.14915 5.62277 2.09374 5.71389 2.05593C5.80501 2.01812 5.90269 1.99866 6.00134 1.99866C6.09999 1.99866 6.19767 2.01812 6.28879 2.05593C6.37991 2.09374 6.46267 2.14915 6.53234 2.219Z" fill="white"/>
<path d="M16.5038 14.224C19.6398 14.224 21.7998 11.872 21.7998 8.032C21.7998 4.192 19.6398 1.936 16.5038 1.936C13.3678 1.936 11.2078 4.176 11.2078 8.032C11.2078 11.872 13.3678 14.224 16.5038 14.224ZM16.5038 12.176C14.7438 12.176 13.6238 10.544 13.6238 8.032C13.6238 5.456 14.6958 3.968 16.5038 3.968C18.3118 3.968 19.3837 5.456 19.3837 8.032C19.3837 10.544 18.2638 12.176 16.5038 12.176Z" fill="white"/>
<path d="M27.7451 2.16V14H31.1211C34.6091 14 36.8491 12 36.8491 8.032C36.8491 4.016 34.6091 2.16 30.9931 2.16H27.7451ZM30.8491 12.096H30.1131V4.048H30.8491C33.0731 4.048 34.4331 5.136 34.4331 8.032C34.4331 10.912 33.0731 12.096 30.8491 12.096Z" fill="white"/>
<path d="M48.383 10.96L49.215 14H51.695L47.887 2.16H45.103L41.311 14H43.711L44.543 10.96H48.383ZM47.871 9.12H45.055L45.407 7.824C45.775 6.592 46.111 5.248 46.415 3.952H46.479C46.847 5.232 47.151 6.592 47.519 7.824L47.871 9.12Z" fill="white"/>
</svg>
