<svg width="12" height="14" viewBox="0 0 12 14" fill="none" xmlns="http://www.w3.org/2000/svg">
<path d="M11.2421 6.33124C10.9388 5.64852 10.4978 5.03574 9.94679 4.53124L9.4921 4.11406C9.47666 4.10028 9.45808 4.0905 9.43798 4.08558C9.41789 4.08067 9.39689 4.08076 9.37683 4.08585C9.35678 4.09094 9.33828 4.10087 9.32296 4.11478C9.30764 4.12869 9.29597 4.14615 9.28898 4.16562L9.08585 4.74843C8.95929 5.11406 8.72648 5.48749 8.39679 5.85468C8.37491 5.87812 8.34992 5.88437 8.33273 5.88593C8.31554 5.88749 8.28898 5.88437 8.26554 5.86249C8.24366 5.84374 8.23273 5.81562 8.23429 5.78749C8.2921 4.84687 8.01085 3.78593 7.39523 2.63124C6.88585 1.67187 6.17804 0.923431 5.29366 0.401556L4.64835 0.0218687C4.56398 -0.0281313 4.45616 0.0374936 4.46085 0.135931L4.49523 0.885931C4.51866 1.39843 4.45929 1.85156 4.31866 2.22812C4.14679 2.68906 3.89991 3.11718 3.58429 3.50156C3.36464 3.76869 3.11568 4.0103 2.8421 4.22187C2.1832 4.72838 1.64744 5.37739 1.27491 6.12031C0.903311 6.8697 0.709743 7.69477 0.70929 8.53124C0.70929 9.26874 0.854602 9.98281 1.1421 10.6562C1.41971 11.3046 1.82032 11.8931 2.32179 12.3891C2.82804 12.8891 3.41554 13.2828 4.07023 13.5562C4.74835 13.8406 5.4671 13.9844 6.20929 13.9844C6.95148 13.9844 7.67023 13.8406 8.34835 13.5578C9.00143 13.286 9.5953 12.8895 10.0968 12.3906C10.603 11.8906 10.9999 11.3062 11.2765 10.6578C11.5635 9.98621 11.7108 9.26318 11.7093 8.53281C11.7093 7.77031 11.553 7.02968 11.2421 6.33124Z" fill="#939AA2"/>
</svg>
