<svg fill="none" height="32" viewBox="0 0 33 32" width="33" xmlns="http://www.w3.org/2000/svg"><path d="m16.7511 24.9524c.5898.0007 1.1652-.1823 1.6462-.5237.481-.3413.8437-.8241 1.0376-1.3811h-5.3676c.194.557.5567 1.0398 1.0376 1.3811.481.3414 1.0564.5244 1.6462.5237zm6.6667-7.0609v-4.3677c0-3.0638-2.081-5.64473-4.9-6.42092-.2791-.70286-.961-1.19809-1.7667-1.19809s-1.4876.49523-1.7666 1.19809c-2.82.77619-4.9 3.35712-4.9 6.42092v4.3677l-1.62576 1.6257c-.08862.0883-.15889.1932-.20678.3088-.04789.1155-.07245.2394-.07227.3645v.9524c0 .2526.10034.4948.27894.6734.17861.1786.42085.279.67344.279h15.23813c.2526 0 .4948-.1004.6734-.279s.2789-.4208.2789-.6734v-.9524c.0002-.1251-.0243-.249-.0722-.3645-.0479-.1156-.1182-.2205-.2068-.3088z" fill="#191919"/></svg>