<svg fill="none" height="32" viewBox="0 0 33 32" width="33" xmlns="http://www.w3.org/2000/svg"><path d="m16.7511 24.9524c.5898.0007 1.1652-.1823 1.6462-.5237.481-.3413.8437-.8241 1.0376-1.3811h-5.3676c.194.557.5567 1.0398 1.0376 1.3811.481.3414 1.0564.5244 1.6462.5237zm6.6667-7.061v-4.3676c0-3.0638-2.081-5.64476-4.9-6.42095-.2791-.70286-.961-1.1981-1.7667-1.1981s-1.4876.49524-1.7666 1.1981c-2.82.77619-4.9 3.35715-4.9 6.42095v4.3676l-1.62576 1.6257c-.08862.0883-.15889.1933-.20678.3088-.04789.1156-.07245.2395-.07227.3646v.9523c0 .2526.10034.4949.27894.6735.17861.1786.42085.2789.67344.2789h15.23813c.2526 0 .4948-.1003.6734-.2789s.2789-.4209.2789-.6735v-.9523c.0002-.1251-.0243-.249-.0722-.3646-.0479-.1155-.1182-.2205-.2068-.3088z" fill="#191919"/><circle cx="28.1808" cy="4.57143" fill="#fa4671" r="4.57143"/></svg>