<svg fill="none" height="30" viewBox="0 0 31 30" width="31" xmlns="http://www.w3.org/2000/svg"><path d="m15.4688 0c-8.54653 0-15.4688 6.88167-15.4688 15.378 0 6.792 4.43438 12.5588 10.5832 14.5964.7734.1409 1.0184-.3332 1.0184-.7433v-2.8578c-4.30551.9355-5.19496-1.8197-5.19496-1.8197-.70898-1.7813-1.71445-2.2554-1.71445-2.2554-1.40508-.9612.10312-.9355.10312-.9355 1.54688.1025 2.37188 1.589 2.37188 1.589 1.37929 2.3452 3.62231 1.666 4.49881 1.2815.1418-.9867.5414-1.6787.9797-2.0504-3.4289-.3972-7.05117-1.7172-7.05117-7.6121 0-1.6788.60586-3.05 1.59844-4.1264-.15469-.3845-.6961-1.94793.15469-4.06241 0 0 1.30195-.41008 4.25394 1.57625 1.2375-.34601 2.5523-.5126 3.8672-.5126 1.3148.01281 2.6425.17941 3.88.5126 2.952-1.98633 4.2539-1.57625 4.2539-1.57625.8379 2.11448.3094 3.67791.1547 4.07521.9926 1.0764 1.5985 2.4476 1.5985 4.1264 0 5.9077-3.6223 7.2021-7.0641 7.5865.5543.4742 1.057 1.4097 1.057 2.8449v4.2162c0 .4101.245.8842 1.0313.7433 6.1359-2.0376 10.5574-7.8044 10.5574-14.5964 0-8.49633-6.9223-15.378-15.4687-15.378z" fill="#191919"/></svg>