<svg fill="none" height="32" viewBox="0 0 32 32" width="32" xmlns="http://www.w3.org/2000/svg"><path d="m28.6074 13.5387c.164.8787.2533 1.7973.2533 2.756 0 7.4987-5.0186 12.8307-12.5986 12.8307-1.7238.0005-3.4308-.3387-5.0235-.9981-1.59269-.6594-3.03983-1.6262-4.25873-2.8451-1.21891-1.2189-2.18569-2.666-2.84511-4.2587-.65943-1.5927-.99857-3.2997-.99804-5.0235-.00053-1.7238.33861-3.4308.99804-5.0234.65942-1.59272 1.6262-3.03985 2.84511-4.25876 1.2189-1.2189 2.66604-2.18568 4.25873-2.84511 1.5927-.65942 3.2997-.99856 5.0235-.99803 3.544 0 6.5053 1.304 8.7773 3.42133l-3.7 3.7v-.00933c-1.3773-1.312-3.1253-1.98534-5.0773-1.98534-4.3307 0-7.85071 3.65864-7.85071 7.99064 0 4.3307 3.52001 7.9974 7.85071 7.9974 3.9293 0 6.604-2.2467 7.1533-5.332h-7.1533v-5.1187h12.3466z" fill="#000"/></svg>