<svg width="11" height="14" viewBox="0 0 11 14" fill="none" xmlns="http://www.w3.org/2000/svg">
<path d="M10.5328 6.33124C10.2295 5.64852 9.78851 5.03574 9.2375 4.53124L8.78281 4.11406C8.76737 4.10028 8.74879 4.0905 8.72869 4.08558C8.7086 4.08067 8.6876 4.08076 8.66754 4.08585C8.64749 4.09094 8.62899 4.10087 8.61367 4.11478C8.59835 4.12869 8.58668 4.14615 8.57969 4.16562L8.37656 4.74843C8.25 5.11406 8.01719 5.48749 7.6875 5.85468C7.66563 5.87812 7.64063 5.88437 7.62344 5.88593C7.60625 5.88749 7.57969 5.88437 7.55625 5.86249C7.53437 5.84374 7.52344 5.81562 7.525 5.78749C7.58281 4.84687 7.30156 3.78593 6.68594 2.63124C6.17656 1.67187 5.46875 0.923431 4.58437 0.401556L3.93906 0.0218687C3.85469 -0.0281313 3.74688 0.0374936 3.75156 0.135931L3.78594 0.885931C3.80937 1.39843 3.75 1.85156 3.60938 2.22812C3.4375 2.68906 3.19062 3.11718 2.875 3.50156C2.65535 3.76869 2.40639 4.0103 2.13281 4.22187C1.47391 4.72838 0.938146 5.37739 0.565625 6.12031C0.194022 6.8697 0.000453376 7.69477 0 8.53124C0 9.26874 0.145312 9.98281 0.432812 10.6562C0.710416 11.3046 1.11103 11.8931 1.6125 12.3891C2.11875 12.8891 2.70625 13.2828 3.36094 13.5562C4.03906 13.8406 4.75781 13.9844 5.5 13.9844C6.24219 13.9844 6.96094 13.8406 7.63906 13.5578C8.29214 13.286 8.88601 12.8895 9.3875 12.3906C9.89375 11.8906 10.2906 11.3062 10.5672 10.6578C10.8543 9.98621 11.0015 9.26318 11 8.53281C11 7.77031 10.8438 7.02968 10.5328 6.33124Z" fill="#191919"/>
</svg>
