<svg width="14" height="16" viewBox="0 0 14 16" fill="none" xmlns="http://www.w3.org/2000/svg">
<path d="M13.7833 5.06902H9.74878C9.66517 5.06902 9.61848 4.97252 9.67036 4.90696L13.3559 0.250275C13.4348 0.14824 13.3636 0 13.2346 0H5.85151C5.79761 0 5.74563 0.0288778 5.71868 0.0770076L0.730509 8.69223C0.670828 8.79427 0.743985 8.92325 0.863347 8.92325H4.22088L2.49976 15.8077C2.46318 15.9579 2.64415 16.0638 2.75581 15.956L13.8892 5.33278C13.9893 5.23844 13.9219 5.06902 13.7833 5.06902ZM4.73875 12.2538L5.89964 7.61413H2.86939L6.51955 1.31105H10.8435L6.83336 6.38008H10.6458C10.7361 6.38008 10.7801 6.49015 10.7149 6.55243L4.73875 12.2538Z" fill="#9E9E9E"/>
</svg>
