<svg width="18" height="18" viewBox="0 0 18 18" fill="none" xmlns="http://www.w3.org/2000/svg">
<path d="M2.86968 12.6737C2.98091 12.7854 3.06614 12.9202 3.11929 13.0686C3.17245 13.2169 3.19223 13.3752 3.17722 13.5321C3.10191 14.2582 2.95913 14.9756 2.75073 15.6752C4.24558 15.3291 5.15857 14.9283 5.57327 14.7183C5.80848 14.5992 6.07936 14.5709 6.33408 14.639C7.06429 14.8337 7.81689 14.9317 8.57261 14.9305C12.8546 14.9305 16.0736 11.9226 16.0736 8.50103C16.0736 5.08056 12.8546 2.07158 8.57261 2.07158C4.29059 2.07158 1.07158 5.08056 1.07158 8.50103C1.07158 10.0741 1.73274 11.5336 2.86968 12.6737ZM2.34139 16.8582C2.0875 16.9086 1.83279 16.9547 1.57736 16.9965C1.36304 17.0308 1.20016 16.8079 1.28482 16.6086C1.37997 16.3842 1.46718 16.1565 1.54628 15.926L1.5495 15.9153C1.81525 15.1437 2.03171 14.2565 2.111 13.4303C0.796181 12.1122 0 10.387 0 8.50103C0 4.35832 3.83838 1 8.57261 1C13.3068 1 17.1452 4.35832 17.1452 8.50103C17.1452 12.6437 13.3068 16.0021 8.57261 16.0021C7.72354 16.0032 6.878 15.893 6.05762 15.6742C5.5004 15.956 4.3013 16.4693 2.34139 16.8582Z" fill="#94969B"/>
</svg>
