<svg fill="none" height="24" viewBox="0 0 25 24" width="25" xmlns="http://www.w3.org/2000/svg"><path d="m16.5469 14.2936c-.1876-.188-.4422-.2936-.7078-.2936h-.3752l-.28-.27c.98-1.14 1.57-2.62 1.57-4.23 0-3.59-2.91-6.5-6.5-6.5-3.58999 0-6.49999 2.91-6.49999 6.5s2.91 6.5 6.49999 6.5c1.61 0 3.09-.59 4.23-1.57l.27.28v.3752c0 .2656.1056.5202.2936.7078l3.9993 3.9913c.3906.3899 1.0233.3895 1.4135-.0007l.0772-.0772c.3903-.3902.3906-1.0229.0007-1.4135zm-6.293-.2936c-2.48999 0-4.49999-2.01-4.49999-4.5s2.01-4.5 4.49999-4.5c2.49 0 4.5 2.01 4.5 4.5s-2.01 4.5-4.5 4.5z" fill="#191919"/></svg>