<svg width="17" height="16" viewBox="0 0 17 16" fill="none" xmlns="http://www.w3.org/2000/svg">
<rect x="1.29688" y="4" width="14" height="5" rx="1" fill="#E2E5E8"/>
<path d="M8.29758 0C12.8802 0 16.5952 2.89546 16.5952 6.46816C16.5952 10.0401 12.8802 12.9355 8.29758 12.9355C7.95932 12.9357 7.62132 12.9198 7.28471 12.8879C7.05664 12.8662 6.82645 12.9142 6.63149 13.0345L3.53398 14.9459C3.13806 15.1553 2.99819 15.1324 3.16098 14.6195L3.60812 12.655C3.70992 12.2077 3.49047 11.7539 3.10183 11.5102C1.21061 10.3245 0 8.50625 0 6.46816C0 2.89625 3.71494 0 8.29758 0ZM12.9656 6.36938L14.1272 5.24407C14.1942 5.17445 14.2316 5.08154 14.2315 4.9849C14.2314 4.88826 14.1938 4.79544 14.1266 4.72599C14.0594 4.65654 13.9679 4.61588 13.8713 4.61258C13.7747 4.60927 13.6806 4.64358 13.6088 4.70828L12.0852 6.18288V4.96432C12.0852 4.8654 12.0459 4.77052 11.976 4.70057C11.906 4.63062 11.8112 4.59133 11.7122 4.59133C11.6133 4.59133 11.5184 4.63062 11.4485 4.70057C11.3785 4.77052 11.3392 4.8654 11.3392 4.96432V6.98498C11.3253 7.04262 11.3253 7.10277 11.3392 7.16041V8.29758C11.3392 8.3965 11.3785 8.49137 11.4485 8.56133C11.5184 8.63128 11.6133 8.67057 11.7122 8.67057C11.8112 8.67057 11.906 8.63128 11.976 8.56133C12.0459 8.49137 12.0852 8.3965 12.0852 8.29758V7.22047L12.4227 6.8941L13.5511 8.50067C13.5793 8.54078 13.6151 8.57495 13.6565 8.60122C13.6979 8.62749 13.744 8.64536 13.7923 8.6538C13.8406 8.66224 13.8901 8.66109 13.9379 8.6504C13.9857 8.63972 14.031 8.61972 14.0711 8.59155C14.1112 8.56337 14.1454 8.52757 14.1717 8.48619C14.1979 8.44481 14.2158 8.39866 14.2242 8.35038C14.2327 8.30209 14.2315 8.25262 14.2208 8.20478C14.2102 8.15694 14.1902 8.11168 14.162 8.07157L12.9656 6.36859V6.36938ZM10.628 7.88981H9.47425V4.97618C9.46984 4.88032 9.42865 4.78986 9.35926 4.72359C9.28987 4.65732 9.1976 4.62034 9.10165 4.62034C9.0057 4.62034 8.91344 4.65732 8.84404 4.72359C8.77465 4.78986 8.73347 4.88032 8.72905 4.97618V8.26281C8.72905 8.46827 8.895 8.6358 9.10126 8.6358H10.628C10.7269 8.6358 10.8218 8.5965 10.8918 8.52655C10.9617 8.4566 11.001 8.36173 11.001 8.26281C11.001 8.16388 10.9617 8.06901 10.8918 7.99906C10.8218 7.92911 10.7269 7.88981 10.628 7.88981ZM5.99954 7.02686L6.54955 5.67791L7.05373 7.02686H5.99954ZM7.99333 7.4125L7.99491 7.39986C7.99473 7.30589 7.95885 7.2155 7.89455 7.14698L7.06796 4.93429C7.0333 4.82885 6.9673 4.73649 6.87876 4.66956C6.79022 4.60262 6.68337 4.5643 6.57247 4.55972C6.46076 4.55922 6.35155 4.59276 6.25937 4.65586C6.16719 4.71896 6.09641 4.80864 6.05644 4.91296L4.74384 8.13321C4.72532 8.17856 4.71591 8.22711 4.71615 8.2761C4.71639 8.32509 4.72628 8.37354 4.74525 8.41871C4.76422 8.46388 4.79189 8.50486 4.8267 8.53933C4.86151 8.5738 4.90277 8.60108 4.94812 8.6196C4.99347 8.63813 5.04203 8.64754 5.09101 8.64729C5.14 8.64705 5.18846 8.63717 5.23363 8.6182C5.27879 8.59923 5.31978 8.57155 5.35425 8.53674C5.38872 8.50193 5.41599 8.46067 5.43452 8.41532L5.6953 7.77285H7.33111L7.56739 8.40505C7.58345 8.45231 7.60884 8.49586 7.64204 8.53312C7.67524 8.57039 7.71559 8.60061 7.76068 8.622C7.80578 8.64339 7.85471 8.65552 7.90457 8.65765C7.95444 8.65979 8.00423 8.6519 8.05099 8.63444C8.09774 8.61698 8.14053 8.59032 8.17679 8.55603C8.21306 8.52174 8.24208 8.48052 8.26212 8.43481C8.28217 8.3891 8.29284 8.33984 8.2935 8.28993C8.29416 8.24002 8.2848 8.19049 8.26597 8.14427L7.99333 7.4125ZM5.36814 4.98013C5.36814 4.88134 5.32895 4.78659 5.25917 4.71666C5.18939 4.64673 5.09472 4.60734 4.99593 4.60713H2.43159C2.33266 4.60713 2.23779 4.64643 2.16784 4.71638C2.09789 4.78633 2.05859 4.8812 2.05859 4.98013C2.05859 5.07905 2.09789 5.17392 2.16784 5.24387C2.23779 5.31383 2.33266 5.35312 2.43159 5.35312H3.34827V8.30548C3.34827 8.4044 3.38757 8.49928 3.45752 8.56923C3.52747 8.63918 3.62234 8.67848 3.72127 8.67848C3.82019 8.67848 3.91506 8.63918 3.98501 8.56923C4.05496 8.49928 4.09426 8.4044 4.09426 8.30548V5.35312H4.99514C5.09407 5.35312 5.18894 5.31383 5.25889 5.24387C5.32884 5.17392 5.36814 5.07905 5.36814 4.98013Z" fill="#E2E5E8"/>
<circle cx="4.5464" cy="6.51953" r="0.987807" fill="#333D4B"/>
<circle cx="8.49953" cy="6.51953" r="0.987807" fill="#333D4B"/>
<circle cx="12.4487" cy="6.51953" r="0.987807" fill="#333D4B"/>
</svg>
