<svg fill="none" height="24" viewBox="0 0 24 24" width="24" xmlns="http://www.w3.org/2000/svg" xmlns:xlink="http://www.w3.org/1999/xlink"><clipPath id="a"><path d="m5.41946 0h18.5806v19.2h-18.5806z"/></clipPath><clipPath id="b"><path d="m0 4.79999h18.5806v19.2h-18.5806z"/></clipPath><g clip-path="url(#a)"><path d="m11.613 4.8h6.19355v9.6h-6.19355z" fill="#fff"/><path clip-rule="evenodd" d="m6.19366.800003h17.03224v12.799997h-6.1935v2.4h-1.5484v1.6h-1.5484v-1.6h-1.5484v-2.4h-6.19354z" fill="#ccccce" fill-rule="evenodd"/><path d="m21.6775 1.2c.308 0 .6034.12643.8212.35147.2178.22505.3401.53027.3401.84853v9.6c0 .3183-.1223.6235-.3401.8485-.2178.2251-.5132.3515-.8212.3515h-2.9032c-.3606 0-.7162.0867-1.0387.2534-.3225.1666-.603.4085-.8194.7066l-2.2064 3.0396-2.2065-3.0396c-.2163-.2981-.4968-.54-.8193-.7066-.3225-.1667-.6782-.2534-1.0387-.2534h-2.90326c-.30799 0-.60337-.1264-.82115-.3515-.21779-.225-.34014-.5302-.34014-.8485v-9.6c0-.31826.12235-.62348.34014-.84853.21778-.22504.51316-.35147.82115-.35147zm-13.93546-1.2c-.61598 0-1.20674.252856-1.64231.702944-.43557.450086-.68027 1.060536-.68027 1.697056v9.6c0 .6365.2447 1.247.68027 1.6971.43557.45 1.02633.7029 1.64231.7029h2.90326c.1803 0 .3581.0434.5193.1267.1613.0833.3015.2043.4097.3533l2.2065 3.0396c.1081.149.2484.27.4096.3533.1613.0833.3391.1267.5194.1267s.3581-.0434.5193-.1267c.1613-.0833.3015-.2043.4097-.3533l2.2065-3.0396c.1081-.149.2484-.27.4097-.3533.1612-.0833.339-.1267.5193-.1267h2.9032c.616 0 1.2068-.2529 1.6423-.7029.4356-.4501.6803-1.0606.6803-1.6971v-9.6c0-.63652-.2447-1.24697-.6803-1.697056-.4355-.450088-1.0263-.702944-1.6423-.702944z" fill="#ccccce"/><path d="m11.2259 7.2c0 .31826-.1223.62348-.3401.84853-.2178.22504-.5132.35147-.8212.35147-.30798 0-.60336-.12643-.82115-.35147-.21778-.22505-.34013-.53027-.34013-.84853s.12235-.62348.34013-.84853c.21779-.22504.51317-.35147.82115-.35147.308 0 .6034.12643.8212.35147.2178.22505.3401.53027.3401.84853zm4.6452 0c0 .31826-.1224.62348-.3402.84853-.2178.22504-.5131.35147-.8211.35147s-.6034-.12643-.8212-.35147c-.2178-.22505-.3401-.53027-.3401-.84853s.1223-.62348.3401-.84853c.2178-.22504.5132-.35147.8212-.35147s.6033.12643.8211.35147c.2178.22505.3402.53027.3402.84853zm4.6451 0c0 .31826-.1223.62348-.3401.84853-.2178.22504-.5132.35147-.8212.35147s-.6033-.12643-.8211-.35147c-.2178-.22505-.3402-.53027-.3402-.84853s.1224-.62348.3402-.84853c.2178-.22504.5131-.35147.8211-.35147s.6034.12643.8212.35147c.2178.22505.3401.53027.3401.84853z" fill="#394046"/></g><g clip-path="url(#b)"><path d="m6.19354 9.59999h6.19355v9.6h-6.19355z" fill="#fff"/><g fill="#efefef"><path clip-rule="evenodd" d="m.7742 5.59999h17.0323v12.80001h-4.8065v.6h-2.9355v3.4h-1.54836v-3.4h-2.51613v-.6h-5.22581z" fill-rule="evenodd"/><path d="m10 18h2v2h-2z"/><path d="m7 18h2v2h-2z"/><rect height="2" rx="1" width="4" x="7" y="19"/><path d="m16.2581 5.99999c.308 0 .6033.12643.8211.35147s.3402.53027.3402.84853v9.60001c0 .3182-.1224.6235-.3402.8485-.2178.2251-.5131.3515-.8211.3515h-2.9033c-.3605 0-.7161.0867-1.0387.2534-.3225.1666-.603.4085-.8193.7066l-2.20648 3.0396-2.20645-3.0396c-.21634-.2981-.49687-.54-.81937-.7066-.32251-.1667-.67812-.2534-1.03869-.2534h-2.90323c-.30799 0-.60337-.1264-.82116-.3515-.21778-.225-.34013-.5303-.34013-.8485v-9.60001c0-.31826.12235-.62349.34013-.84853.21779-.22504.51317-.35147.82116-.35147zm-13.93552-1.2c-.61599 0-1.20674.25285-1.642312.70294-.435568.45009-.680268 1.06054-.680268 1.69706v9.60001c0 .6365.2447 1.247.680268 1.697.435572.4501 1.026322.703 1.642312.703h2.90323c.18028 0 .35809.0434.51934.1267s.30152.2043.40969.3533l2.20645 3.0396c.10817.149.24844.27.40969.3533s.33906.1267.51934.1267c.18029 0 .3581-.0434.51935-.1267s.30153-.2043.40973-.3533l2.2064-3.0396c.1082-.149.2484-.27.4097-.3533.1612-.0833.3391-.1267.5193-.1267h2.9033c.616 0 1.2067-.2529 1.6423-.703.4355-.45.6802-1.0605.6802-1.697v-9.60001c0-.63652-.2447-1.24697-.6802-1.69706-.4356-.45009-1.0263-.70294-1.6423-.70294z"/></g><path d="m5.80644 12c0 .3182-.12235.6235-.34014.8485-.21778.2251-.51316.3515-.82115.3515-.308 0-.60338-.1264-.82116-.3515-.21778-.225-.34013-.5303-.34013-.8485 0-.3183.12235-.6235.34013-.8485.21778-.2251.51316-.3515.82116-.3515.30799 0 .60337.1264.82115.3515.21779.225.34014.5302.34014.8485zm4.64516 0c0 .3182-.1224.6235-.3401.8485-.21782.2251-.5132.3515-.82119.3515-.308 0-.60337-.1264-.82116-.3515-.21778-.225-.34013-.5303-.34013-.8485 0-.3183.12235-.6235.34013-.8485.21779-.2251.51316-.3515.82116-.3515.30799 0 .60337.1264.82119.3515.2177.225.3401.5302.3401.8485zm4.6452 0c0 .3182-.1224.6235-.3402.8485-.2178.2251-.5131.3515-.8211.3515s-.6034-.1264-.8212-.3515c-.2178-.225-.3401-.5303-.3401-.8485 0-.3183.1223-.6235.3401-.8485.2178-.2251.5132-.3515.8212-.3515s.6033.1264.8211.3515c.2178.225.3402.5302.3402.8485z" fill="#394046"/></g></svg>