<svg fill="none" height="24" viewBox="0 0 24 24" width="24" xmlns="http://www.w3.org/2000/svg"><g fill="#efefef"><path d="m10.5 21s-1.5 0-1.5-1.5 1.5-6 7.5-6 7.5 4.5 7.5 6-1.5 1.5-1.5 1.5zm6-9c1.1935 0 2.3381-.4741 3.182-1.318.8439-.84393 1.318-1.98853 1.318-3.182s-.4741-2.33807-1.318-3.18198-1.9885-1.31802-3.182-1.31802-2.3381.47411-3.182 1.31802-1.318 1.98851-1.318 3.18198.4741 2.33807 1.318 3.182c.8439.8439 1.9885 1.318 3.182 1.318z"/><path clip-rule="evenodd" d="m7.824 21c-.22237-.4683-.33327-.9817-.324-1.5 0-2.0325 1.02-4.125 2.904-5.58-.94036-.2897-1.92008-.4314-2.904-.42-6 0-7.5 4.5-7.5 6s1.5 1.5 1.5 1.5z" fill-rule="evenodd"/><path d="m6.75 12c.99456 0 1.94839-.3951 2.65165-1.0983.70325-.7033 1.09835-1.65714 1.09835-2.6517s-.3951-1.94839-1.09835-2.65165c-.70326-.70326-1.65709-1.09835-2.65165-1.09835s-1.94839.39509-2.65165 1.09835-1.09835 1.65709-1.09835 2.65165.39509 1.9484 1.09835 2.6517c.70326.7032 1.65709 1.0983 2.65165 1.0983z"/></g></svg>