<svg fill="none" height="24" viewBox="0 0 24 24" width="24" xmlns="http://www.w3.org/2000/svg"><path d="m20 0h-16c-1.103 0-2 1.196-2 2.66667v18.66663c0 1.4707.897 2.6667 2 2.6667h16c1.103 0 2-1.196 2-2.6667v-18.66663c0-1.47067-.897-2.66667-2-2.66667z" stroke="#191919" stroke-width="3"/><g fill="#191919"><path d="m7.47538 3.14149c-.09391-.08124-.23321-.08123-.32712.00001l-1.92972 1.66943c-.11524.0997-.11524.27844 0 .37814l1.92972 1.66943c.09391.08124.23321.08125.32712.00001l.05883-.05088c.11525-.0997.11525-.27844 0-.37815l-1.43381-1.24041c-.11524-.0997-.11524-.27844 0-.37814l1.43381-1.24041c.11525-.09971.11525-.27845 0-.37814zm3.37642.00002c-.094-.08125-.2333-.08124-.3272.00001l-.0588.05085c-.1152.09971-.1152.27843 0 .37813l1.4339 1.24043c.1152.0997.1152.27844 0 .37814l-1.4339 1.24043c-.1152.0997-.1152.27842 0 .37813l.0588.05085c.0939.08125.2332.08126.3272.00001l1.9297-1.66942c.1152-.0997.1152-.27844 0-.37814z"/><rect height="1.5" rx=".75" width="14" x="5" y="9"/><rect height="1.5" rx=".75" width="11" x="5" y="14"/><rect height="1.5" rx=".75" width="7" x="5" y="19"/></g></svg>