<svg fill="none" height="24" viewBox="0 0 24 24" width="24" xmlns="http://www.w3.org/2000/svg"><g fill="#191919"><path d="m20 3h-16c-1.103 0-2 .897-2 2v14c0 1.103.897 2 2 2h16c1.103 0 2-.897 2-2v-14c0-1.103-.897-2-2-2zm-15.5 16c-.27614 0-.5-.2239-.5-.5v-11c0-.27614.22386-.5.5-.5h15.0001c.2761 0 .4999.22381.5.49992l.0018 10.99998c.0001.2762-.2238.5001-.5.5001z"/><path d="m9.64651 9.64648c-.19524-.19522-.51178-.19522-.70701.00002l-2.99995 2.9999c-.19526.1953-.19526.5119 0 .7072l2.99995 2.9999c.19523.1952.51177.1952.70701 0 .19526-.1952.19527-.5118.00002-.707l-2.29292-2.2929c-.19526-.1953-.19526-.5119 0-.7072l2.29292-2.2929c.19525-.1952.19524-.51178-.00002-.70702zm5.41399.00002c-.1952-.19523-.5118-.19522-.707.00002-.1952.19522-.1952.51178 0 .70698l2.293 2.2929c.1953.1953.1953.5119 0 .7072l-2.293 2.2929c-.1952.1952-.1952.5118 0 .707.1952.1952.5118.1952.707 0l2.9999-2.9999c.1953-.1953.1953-.5119 0-.7072z"/></g></svg>