<svg fill="none" height="24" viewBox="0 0 24 24" width="24" xmlns="http://www.w3.org/2000/svg"><path d="m22.5 21s1.5 0 1.5-1.5-1.5-6-7.5-6-7.5 4.5-7.5 6 1.5 1.5 1.5 1.5zm-11.967-1.5c-.0111-.0015-.0221-.0035-.033-.006.0015-.396.2505-1.545 1.14-2.58.828-.9705 2.283-1.914 4.86-1.914 2.5755 0 4.0305.945 4.86 1.914.8895 1.035 1.137 2.1855 1.14 2.58l-.012.003c-.007.0012-.014.0022-.021.003zm5.967-9c.7956 0 1.5587-.3161 2.1213-.87868.5626-.56261.8787-1.32567.8787-2.12132s-.3161-1.55871-.8787-2.12132-1.3257-.87868-2.1213-.87868-1.5587.31607-2.1213.87868-.8787 1.32567-.8787 2.12132.3161 1.55871.8787 2.12132c.5626.56258 1.3257.87868 2.1213.87868zm4.5-3c0 .59095-.1164 1.17611-.3425 1.72208-.2262.54596-.5577 1.04202-.9755 1.45992-.4179.4178-.914.7493-1.4599.9755-.546.2261-1.1312.3425-1.7221.3425s-1.1761-.1164-1.7221-.3425c-.5459-.2262-1.042-.5577-1.4599-.9755-.4178-.4179-.7493-.91396-.9755-1.45992-.2261-.54597-.3425-1.13113-.3425-1.72208 0-1.19347.4741-2.33807 1.318-3.18198s1.9885-1.31802 3.182-1.31802 2.3381.47411 3.182 1.31802 1.318 1.98851 1.318 3.18198zm-10.596 6.42c-.60003-.1889-1.21855-.3131-1.845-.3705-.352-.0335-.70541-.05-1.059-.0495-6 0-7.5 4.5-7.5 6 0 1.0005.4995 1.5 1.5 1.5h6.324c-.22237-.4683-.33326-.9817-.324-1.5 0-1.515.5655-3.063 1.635-4.356.3645-.441.789-.8535 1.269-1.224zm-3.024 1.08c-.88777 1.3339-1.36734 2.8977-1.38 4.5h-4.5c0-.39.246-1.545 1.14-2.586.8175-.954 2.238-1.884 4.74-1.9125zm-5.13-6.75c0-1.19347.47411-2.33807 1.31802-3.18198s1.98851-1.31802 3.18198-1.31802 2.33807.47411 3.18198 1.31802c.84392.84391 1.31802 1.98851 1.31802 3.18198s-.4741 2.3381-1.31802 3.182c-.84391.8439-1.98851 1.318-3.18198 1.318s-2.33807-.4741-3.18198-1.318-1.31802-1.98853-1.31802-3.182zm4.5-3c-.79565 0-1.55871.31607-2.12132.87868s-.87868 1.32567-.87868 2.12132.31607 1.55871.87868 2.1213c.56261.5626 1.32567.8787 2.12132.8787s1.55871-.3161 2.12132-.8787c.56261-.56259.87868-1.32565.87868-2.1213s-.31607-1.55871-.87868-2.12132-1.32567-.87868-2.12132-.87868z" fill="#191919"/></svg>